REM DIRINDEX 1\2\6,1\2\7,1\2\8,1\3\9,1\3\10,1\3\11,1\4\12,1\4\13,1\4\14,1\5\15,1\5\16,1\5\17,1\5\18
REM DIRNAME cjc019,folder01,folder02,folder03,folder04,folder05,folder06,folder07,folder08,folder09,folder10,folder11,folder12,folder13,folder14,folder15,folder16,folder17
TITLE ""
FILE "2Q_j_1236-1249.mp3" MP3
  TRACK 01 AUDIO
    TITLE "6:cjc019_0170"
    INDEX 01 00:00:00
  TRACK 02 AUDIO
    TITLE "0:"
    INDEX 01 00:01:52
  TRACK 03 AUDIO
    TITLE "7:cjc019_0171"
    INDEX 01 00:02:38
  TRACK 04 AUDIO
    TITLE "0:"
    INDEX 01 00:03:74
  TRACK 05 AUDIO
    TITLE "8:cjc019_0172"
    INDEX 01 00:04:60
  TRACK 06 AUDIO
    TITLE "0:"
    INDEX 01 00:09:04
  TRACK 07 AUDIO
    TITLE "6:cjc019_0173"
    INDEX 01 00:09:63
  TRACK 08 AUDIO
    TITLE "0:"
    INDEX 01 00:11:25
  TRACK 09 AUDIO
    TITLE "7:cjc019_0174"
    INDEX 01 00:12:07
  TRACK 10 AUDIO
    TITLE "0:"
    INDEX 01 00:15:07
  TRACK 11 AUDIO
    TITLE "8:cjc019_0175"
    INDEX 01 00:15:64
  TRACK 12 AUDIO
    TITLE "0:"
    INDEX 01 00:20:22
  TRACK 13 AUDIO
    TITLE "6:cjc019_0176"
    INDEX 01 00:21:06
  TRACK 14 AUDIO
    TITLE "0:"
    INDEX 01 00:22:48
  TRACK 15 AUDIO
    TITLE "7:cjc019_0177"
    INDEX 01 00:23:34
  TRACK 16 AUDIO
    TITLE "0:"
    INDEX 01 00:24:43
  TRACK 17 AUDIO
    TITLE "8:cjc019_0178"
    INDEX 01 00:25:25
  TRACK 18 AUDIO
    TITLE "0:"
    INDEX 01 00:28:57
  TRACK 19 AUDIO
    TITLE "6:cjc019_0179"
    INDEX 01 00:29:38
  TRACK 20 AUDIO
    TITLE "0:"
    INDEX 01 00:31:27
  TRACK 21 AUDIO
    TITLE "7:cjc019_0180"
    INDEX 01 00:32:15
  TRACK 22 AUDIO
    TITLE "0:"
    INDEX 01 00:34:71
  TRACK 23 AUDIO
    TITLE "8:cjc019_0181"
    INDEX 01 00:35:45
  TRACK 24 AUDIO
    TITLE "0:"
    INDEX 01 00:38:37
  TRACK 25 AUDIO
    TITLE "6:cjc019_0182"
    INDEX 01 00:39:21
  TRACK 26 AUDIO
    TITLE "0:"
    INDEX 01 00:40:40
  TRACK 27 AUDIO
    TITLE "7:cjc019_0183"
    INDEX 01 00:41:26
  TRACK 28 AUDIO
    TITLE "0:"
    INDEX 01 00:45:26
  TRACK 29 AUDIO
    TITLE "8:cjc019_0184"
    INDEX 01 00:46:04
  TRACK 30 AUDIO
    TITLE "0:"
    INDEX 01 00:49:08
  TRACK 31 AUDIO
    TITLE "6:cjc019_0185"
    INDEX 01 00:49:69
  TRACK 32 AUDIO
    TITLE "0:"
    INDEX 01 00:51:03
  TRACK 33 AUDIO
    TITLE "7:cjc019_0186"
    INDEX 01 00:51:62
  TRACK 34 AUDIO
    TITLE "0:"
    INDEX 01 00:53:64
  TRACK 35 AUDIO
    TITLE "8:cjc019_0187"
    INDEX 01 00:54:38
  TRACK 36 AUDIO
    TITLE "0:"
    INDEX 01 00:59:08
  TRACK 37 AUDIO
    TITLE "6:cjc019_0188"
    INDEX 01 00:59:69
  TRACK 38 AUDIO
    TITLE "0:"
    INDEX 01 01:01:07
  TRACK 39 AUDIO
    TITLE "7:cjc019_0189"
    INDEX 01 01:01:64
  TRACK 40 AUDIO
    TITLE "0:"
    INDEX 01 01:05:71
  TRACK 41 AUDIO
    TITLE "8:cjc019_0190"
    INDEX 01 01:06:51
  TRACK 42 AUDIO
    TITLE "0:"
    INDEX 01 01:09:56
  TRACK 43 AUDIO
    TITLE "6:cjc019_0191"
    INDEX 01 01:10:35
  TRACK 44 AUDIO
    TITLE "0:"
    INDEX 01 01:11:52
  TRACK 45 AUDIO
    TITLE "7:cjc019_0192"
    INDEX 01 01:12:36
  TRACK 46 AUDIO
    TITLE "0:"
    INDEX 01 01:20:49
  TRACK 47 AUDIO
    TITLE "8:cjc019_0193"
    INDEX 01 01:21:31
  TRACK 48 AUDIO
    TITLE "0:"
    INDEX 01 01:23:48
  TRACK 49 AUDIO
    TITLE "6:cjc019_0194"
    INDEX 01 01:24:26
  TRACK 50 AUDIO
    TITLE "0:"
    INDEX 01 01:25:33
  TRACK 51 AUDIO
    TITLE "7:cjc019_0195"
    INDEX 01 01:26:25
  TRACK 52 AUDIO
    TITLE "0:"
    INDEX 01 01:28:53
  TRACK 53 AUDIO
    TITLE "8:cjc019_0196"
    INDEX 01 01:29:39
  TRACK 54 AUDIO
    TITLE "0:"
    INDEX 01 01:33:19
  TRACK 55 AUDIO
    TITLE "6:cjc019_0197"
    INDEX 01 01:34:03
  TRACK 56 AUDIO
    TITLE "0:"
    INDEX 01 01:35:43
  TRACK 57 AUDIO
    TITLE "7:cjc019_0198"
    INDEX 01 01:36:25
  TRACK 58 AUDIO
    TITLE "0:"
    INDEX 01 01:39:43
  TRACK 59 AUDIO
    TITLE "8:cjc019_0199"
    INDEX 01 01:40:27
  TRACK 60 AUDIO
    TITLE "0:"
    INDEX 01 01:43:45
  TRACK 61 AUDIO
    TITLE "6:cjc019_0200"
    INDEX 01 01:44:30
  TRACK 62 AUDIO
    TITLE "0:"
    INDEX 01 01:45:51
  TRACK 63 AUDIO
    TITLE "7:cjc019_0201"
    INDEX 01 01:46:25
  TRACK 64 AUDIO
    TITLE "0:"
    INDEX 01 01:50:49
  TRACK 65 AUDIO
    TITLE "8:cjc019_0202"
    INDEX 01 01:51:23
  TRACK 66 AUDIO
    TITLE "0:"
    INDEX 01 01:55:16
  TRACK 67 AUDIO
    TITLE "6:cjc019_0203"
    INDEX 01 01:55:71
  TRACK 68 AUDIO
    TITLE "0:"
    INDEX 01 01:57:15
  TRACK 69 AUDIO
    TITLE "7:cjc019_0204"
    INDEX 01 01:58:01
  TRACK 70 AUDIO
    TITLE "0:"
    INDEX 01 02:00:12
  TRACK 71 AUDIO
    TITLE "8:cjc019_0205"
    INDEX 01 02:00:72
  TRACK 72 AUDIO
    TITLE "0:"
    INDEX 01 02:04:57
  TRACK 73 AUDIO
    TITLE "6:cjc019_0206"
    INDEX 01 02:05:38
  TRACK 74 AUDIO
    TITLE "0:"
    INDEX 01 02:06:48
  TRACK 75 AUDIO
    TITLE "7:cjc019_0207"
    INDEX 01 02:07:39
  TRACK 76 AUDIO
    TITLE "0:"
    INDEX 01 02:10:59
  TRACK 77 AUDIO
    TITLE "8:cjc019_0208"
    INDEX 01 02:11:45
  TRACK 78 AUDIO
    TITLE "0:"
    INDEX 01 02:15:31
  TRACK 79 AUDIO
    TITLE "6:cjc019_0209"
    INDEX 01 02:16:11
  TRACK 80 AUDIO
    TITLE "0:"
    INDEX 01 02:17:53
  TRACK 81 AUDIO
    TITLE "7:cjc019_0210"
    INDEX 01 02:18:39
  TRACK 82 AUDIO
    TITLE "0:"
    INDEX 01 02:21:00
  TRACK 83 AUDIO
    TITLE "8:cjc019_0211"
    INDEX 01 02:21:61
  TRACK 84 AUDIO
    TITLE "0:"
    INDEX 01 02:26:01
